<?xml version="1.0" encoding="utf-8"?>
<!-- Uploaded to: SVG Repo, www.svgrepo.com, Generator: SVG Repo Mixer Tools -->
<svg width="800px" height="800px" viewBox="0 0 1024 1024" class="icon" version="1.1" xmlns="http://www.w3.org/2000/svg">
  <!-- Background square -->
  <rect width="1024" height="1024" fill="#1a1a2e" rx="80" ry="80"/>
  
  <!-- Music note paths with improved colors -->
  <path d="M712.603708 229.032908c-47.604524-40.375894-92.541827-78.538148-95.796758-111.165277-0.133105-1.239925-0.783272-2.281217-1.04334-3.51807-0.456653-1.626954-0.780201-3.258003-1.49692-4.754924-0.71672-1.49692-1.693506-2.671317-2.671317-3.971651-0.976787-1.303406-1.82354-2.541283-2.99384-3.584622-1.239925-1.10682-2.607836-1.887021-3.974723-2.733774-1.366887-0.780201-2.60374-1.626954-4.101685-2.21364-1.563473-0.586686-3.258003-0.71672-4.951509-0.976787-1.236853-0.196586-2.343674-0.71672-3.644008-0.71672-0.456653 0-0.783272 0.196586-1.239925 0.260067-0.3901 0-0.780201-0.193514-1.236854-0.130033-1.236853 0.130033-2.277121 0.783272-3.451517 1.043339-1.693506 0.456653-3.321484 0.780201-4.884957 1.49692-1.430368 0.71672-2.604764 1.626954-3.841618 2.603741-1.303406 0.976787-2.60374 1.891116-3.711584 3.127969-1.043339 1.10682-1.760059 2.473707-2.60374 3.778137-0.846753 1.430368-1.760059 2.733774-2.280193 4.298271-0.586686 1.560401-0.71672 3.124898-0.976787 4.751852-0.196586 1.303406-0.780201 2.41125-0.7802 3.778137v492.76529a169.99568 169.99568 0 0 0-26.378358-18.656215c-55.420865-32.106996-133.048779-39.402179-207.681828-19.539827-74.764106 19.993409-138.520422 64.963476-170.560865 120.447822-21.556882 37.25202-27.678692 76.457613-17.778745 113.381989 0.063481 0.066553 0.130033 0.130033 0.130034 0.196586 9.899947 36.861919 34.710736 67.727966 71.896204 89.284848 55.423937 32.106996 133.05185 39.402179 207.749404 19.539827 74.69653-19.993409 138.390388-64.997264 170.430831-120.418129 15.241557-26.375286 22.403635-53.659782 22.013535-80.491721 0.066553-0.326619 0.196586-0.586686 0.196586-0.913305v-2.473707c0-0.650167 0.063481-1.366887 0-2.017054V423.4974c24.48417-16.608444 48.712368-16.281824 75.47673 0.976787 62.779529 40.375894 109.021262 156.689267 98.144528 196.252196-0.130033 0.586686 0 1.10682-0.130033 1.693506-0.326619 1.626954-0.326619 3.253908-0.32662 4.884957 0 1.626954 0 3.191451 0.260067 4.754923 0.326619 1.560401 0.976787 2.993841 1.563473 4.491785 0.586686 1.49692 1.10682 2.867903 1.953573 4.23479 0.910234 1.300334 2.017054 2.407154 3.123874 3.581551 1.173373 1.236853 2.281217 2.343674 3.648104 3.321484 0.456653 0.326619 0.783272 0.846753 1.236853 1.10682 1.043339 0.650167 2.21364 0.71672 3.258003 1.173372 1.040267 0.453581 1.82354 1.170301 2.931384 1.496921 0.520134 0.130033 1.040267 0 1.626954 0.063481 1.693506 0.393172 3.388037 0.393172 5.145024 0.393172 1.563473 0 3.061417 0 4.558337-0.263139 1.563473-0.323548 2.997936-0.910234 4.494857-1.49692 1.49692-0.650167 2.931384-1.170301 4.29827-2.017054 1.303406-0.846753 2.343674-1.953573 3.51807-3.060394 1.236853-1.173373 2.407154-2.281217 3.383941-3.714656 0.326619-0.453581 0.846753-0.713648 1.10682-1.236853 121.066249-203.48185-20.31798-323.443326-123.607532-411.101221z" fill="#ff6b6b" />
  <path d="M551.486138 772.338202c-25.595085 44.220583-77.954533 80.559297-140.083895 97.101189-62.129362 16.605372-125.560081 11.200282-169.780665-14.458285-25.528533-14.784904-42.397044-35.23087-48.77892-59.068968v-0.063481c-6.381877-23.837074-2.017054-49.885741 12.763754-75.417345 25.528533-44.217512 77.954533-80.559297 140.147376-97.101189 62.065881-16.605372 125.563153-11.200282 169.717183 14.394804 25.595085 14.848385 42.460524 35.297423 48.842402 59.132449v0.066553c1.501016 5.598605 2.343674 11.396868 2.607836 17.192058v1.887021c0 0.130033 0.063481 0.196586 0.063481 0.326619 0.520134 18.236422-4.688371 37.25202-15.498552 56.008575z" fill="#4ecdc4" />
  <path d="M827.093542 533.818996c-20.253476-58.288768-59.785688-120.678196-107.651304-151.418305-33.930536-21.880429-69.161406-26.375286-102.505255-14.454189V210.147343c18.298879 18.693074 40.115827 37.318572 63.299662 56.984338 86.291007 73.19961 174.599069 148.613883 146.856897 266.687315z" fill="#ffe66d" />
  <path d="M403.393412 804.965332c-52.296991 20.513542-99.708001 10.550114-124.38978-4.101685-13.023821-7.75286-21.360296-17.58523-22.467116-26.248324-1.173373-9.116675-9.509847-15.628586-18.625498-14.458285-9.119747 1.109892-15.631657 9.446366-14.458285 18.562017 2.407154 19.405699 16.085238 37.445534 38.488874 50.795975 32.690611 19.409794 90.198154 31.326795 153.628873 6.511911 8.596541-3.383941 12.831331-13.023821 9.443294-21.620363-3.388037-8.531013-13.024845-12.762731-21.620362-9.441246z" fill="#ffffff" />
</svg>